<svg xmlns="http://www.w3.org/2000/svg" viewBox="-36 -112 72 120" width="360" height="600">
<defs>
<linearGradient id="pawnShade" x1="0" y1="0" x2="1" y2="0">
      <stop offset="0" stop-color="#000" stop-opacity="0.35"></stop>
      <stop offset="0.28" stop-color="#fff" stop-opacity="0.45"></stop>
      <stop offset="0.45" stop-color="#fff" stop-opacity="0.08"></stop>
      <stop offset="1" stop-color="#000" stop-opacity="0.45"></stop>
    </linearGradient>
<radialGradient id="pawnHead" cx="0.35" cy="0.3" r="0.75">
      <stop offset="0" stop-color="#fff" stop-opacity="0.75"></stop>
      <stop offset="0.35" stop-color="#fff" stop-opacity="0.1"></stop>
      <stop offset="1" stop-color="#000" stop-opacity="0.45"></stop>
    </radialGradient>
<symbol id="fig-d" viewBox="-36 -112 72 120">
      <ellipse cy="4" rx="28" ry="8" fill="#000" opacity="0.35"></ellipse>
      <ellipse cy="0" rx="24" ry="7.5" fill="#3B2C1E"></ellipse>
      <ellipse cy="-3.5" rx="23" ry="7" fill="#6B4E32" stroke="#2A1E12" stroke-width="1.2"></ellipse>
      <rect x="-9.5" y="-34" width="7.5" height="30" rx="3" fill="#2B2B33"></rect>
      <rect x="2" y="-34" width="7.5" height="30" rx="3" fill="#2B2B33"></rect>
      <ellipse cx="-6" cy="-4" rx="6" ry="3" fill="#15110D"></ellipse>
      <ellipse cx="6" cy="-4" rx="6" ry="3" fill="#15110D"></ellipse>
      <path d="M-14,-70 Q-20,-66 -20,-55 L-22,-27 Q0,-20 22,-27 L20,-55 Q20,-66 14,-70 Z" fill="currentColor"></path>
      <path d="M-14,-70 Q-20,-66 -20,-55 L-22,-27 Q0,-20 22,-27 L20,-55 Q20,-66 14,-70 Z" fill="url(#pawnShade)" stroke="#000" stroke-opacity="0.5" stroke-width="1.3"></path>
      <path d="M0,-69 L0,-24" stroke="#000" stroke-opacity="0.35" stroke-width="1.2"></path>
      <path d="M-20,-44 Q0,-40 20,-44" stroke="#2A1E12" stroke-width="3" fill="none" opacity="0.7"></path>
      <path d="M-18,-64 Q-26,-50 -23,-36" stroke="currentColor" stroke-width="8" fill="none" stroke-linecap="round"></path>
      <path d="M18,-64 Q26,-50 23,-36" stroke="currentColor" stroke-width="8" fill="none" stroke-linecap="round"></path>
      <path d="M-18,-64 Q-26,-50 -23,-36 M18,-64 Q26,-50 23,-36" stroke="#000" stroke-opacity="0.25" stroke-width="8" fill="none" stroke-linecap="round" stroke-dasharray="0 3 30"></path>
      <circle cx="-23" cy="-34" r="4" fill="#F1C7A0" stroke="#7A5234" stroke-width="0.8"></circle>
      <circle cx="23" cy="-34" r="4" fill="#F1C7A0" stroke="#7A5234" stroke-width="0.8"></circle>
      <path d="M-7,-70 L0,-60 L7,-70 Z" fill="#F4ECDC" stroke="#000" stroke-opacity="0.35" stroke-width="0.8"></path>
      <circle cy="-80" r="11.5" fill="#F1C7A0"></circle>
      <circle cy="-80" r="11.5" fill="url(#pawnHead)" opacity="0.55" stroke="#7A5234" stroke-width="1"></circle>
      <circle cx="-4" cy="-80" r="1.5" fill="#2A1E12"></circle>
      <circle cx="4" cy="-80" r="1.5" fill="#2A1E12"></circle>
      <path d="M-3,-74 Q0,-72 3,-74" stroke="#7A3A2A" stroke-width="1.3" fill="none" stroke-linecap="round"></path>
      <ellipse cy="-88" rx="17" ry="4" fill="#2A2118"></ellipse>
      <path d="M-10,-88 Q-11,-103 0,-103 Q11,-103 10,-88 Z" fill="#2A2118"></path>
      <path d="M-10.5,-91.5 L10.5,-91.5 L10,-88 L-10,-88 Z" fill="currentColor"></path>
      <path d="M-7,-100 Q-3,-102 1,-101" stroke="#fff" stroke-opacity="0.35" stroke-width="2" fill="none" stroke-linecap="round"></path>
    </symbol>
</defs>
<use href="#fig-d" x="-36" y="-112" width="72" height="120" style="color:#3B82F6"/>
</svg>
